<svg xmlns="http://www.w3.org/2000/svg" xmlns:xlink="http://www.w3.org/1999/xlink" width="144" zoomAndPan="magnify" viewBox="0 0 108 37.5" height="50" preserveAspectRatio="xMidYMid meet" version="1.0"><defs><g/><clipPath id="a67e83184a"><path d="M 6.445312 2.777344 L 34.410156 2.777344 L 34.410156 33.859375 L 6.445312 33.859375 Z M 6.445312 2.777344 " clip-rule="nonzero"/></clipPath></defs><g fill="#ffffff" fill-opacity="1"><g transform="translate(37.982807, 19.748943)"><g><path d="M 5.203125 -2.640625 L 5.203125 -4.734375 L 1.921875 -4.734375 L 1.921875 -2.640625 Z M 0.46875 0 L 0.46875 -6.203125 L 6.65625 -6.203125 L 6.65625 -1.1875 L 1.921875 -1.1875 L 1.921875 0 Z M 0.46875 0 "/></g></g></g><g fill="#ffffff" fill-opacity="1"><g transform="translate(45.09529, 19.748943)"><g><path d="M 6.65625 -6.203125 L 6.65625 0 L 5.203125 0 L 5.203125 -1.1875 L 1.921875 -1.1875 L 1.921875 0 L 0.46875 0 L 0.46875 -6.203125 Z M 1.921875 -2.640625 L 5.203125 -2.640625 L 5.203125 -4.734375 L 1.921875 -4.734375 Z M 1.921875 -2.640625 "/></g></g></g><g fill="#ffffff" fill-opacity="1"><g transform="translate(52.207773, 19.748943)"><g><path d="M 0.46875 -1.46875 L 5.203125 -1.46875 L 5.203125 -2.375 L 0.46875 -2.375 L 0.46875 -6.203125 L 6.65625 -6.203125 L 6.65625 -4.734375 L 1.921875 -4.734375 L 1.921875 -3.828125 L 6.65625 -3.828125 L 6.65625 0 L 0.46875 0 Z M 0.46875 -1.46875 "/></g></g></g><g fill="#ffffff" fill-opacity="1"><g transform="translate(59.320256, 19.748943)"><g><path d="M 0.46875 -1.46875 L 5.203125 -1.46875 L 5.203125 -2.375 L 0.46875 -2.375 L 0.46875 -6.203125 L 6.65625 -6.203125 L 6.65625 -4.734375 L 1.921875 -4.734375 L 1.921875 -3.828125 L 6.65625 -3.828125 L 6.65625 0 L 0.46875 0 Z M 0.46875 -1.46875 "/></g></g></g><g fill="#ffffff" fill-opacity="1"><g transform="translate(66.432739, 19.748943)"><g><path d="M 0.46875 -6.203125 L 6.65625 -6.203125 L 6.65625 -4.734375 L 1.921875 -4.734375 L 1.921875 -3.828125 L 6.65625 -3.828125 L 6.65625 -2.375 L 1.921875 -2.375 L 1.921875 0 L 0.46875 0 Z M 0.46875 -6.203125 "/></g></g></g><g fill="#ffffff" fill-opacity="1"><g transform="translate(73.545222, 19.748943)"><g><path d="M 1.921875 -4.734375 L 1.921875 -1.46875 L 5.203125 -1.46875 L 5.203125 -4.734375 Z M 0.46875 0 L 0.46875 -6.203125 L 6.65625 -6.203125 L 6.65625 0 Z M 0.46875 0 "/></g></g></g><g fill="#ffffff" fill-opacity="1"><g transform="translate(80.657705, 19.748943)"><g><path d="M 0.46875 -6.203125 L 6.65625 -6.203125 L 6.65625 -1.1875 L 5.46875 -1.1875 L 6.640625 0 L 4.859375 0 L 3.703125 -1.1875 L 1.921875 -1.1875 L 1.921875 0 L 0.46875 0 Z M 1.921875 -2.640625 L 5.203125 -2.640625 L 5.203125 -4.734375 L 1.921875 -4.734375 Z M 1.921875 -2.640625 "/></g></g></g><g fill="#ffffff" fill-opacity="1"><g transform="translate(87.770188, 19.748943)"><g><path d="M 6.65625 0 L 0.46875 0 L 0.46875 -6.203125 L 6.65625 -6.203125 L 6.65625 -4.734375 L 1.921875 -4.734375 L 1.921875 -1.46875 L 5.203125 -1.46875 L 5.203125 -2.375 L 4.015625 -2.375 L 4.015625 -3.828125 L 6.65625 -3.828125 Z M 6.65625 0 "/></g></g></g><g fill="#ffffff" fill-opacity="1"><g transform="translate(94.882671, 19.748943)"><g><path d="M 6.65625 -4.734375 L 1.921875 -4.734375 L 1.921875 -3.828125 L 6.65625 -3.828125 L 6.65625 -2.375 L 1.921875 -2.375 L 1.921875 -1.46875 L 6.65625 -1.46875 L 6.65625 0 L 0.46875 0 L 0.46875 -6.203125 L 6.65625 -6.203125 Z M 6.65625 -4.734375 "/></g></g></g><g fill="#ffffff" fill-opacity="1"><g transform="translate(37.982807, 26.982189)"><g><path d="M 0.984375 -2.03125 C 1.085938 -2.03125 1.179688 -2.003906 1.265625 -1.953125 C 1.347656 -1.910156 1.414062 -1.84375 1.46875 -1.75 C 1.519531 -1.664062 1.546875 -1.570312 1.546875 -1.46875 C 1.546875 -1.363281 1.519531 -1.269531 1.46875 -1.1875 C 1.414062 -1.101562 1.347656 -1.035156 1.265625 -0.984375 C 1.179688 -0.929688 1.085938 -0.90625 0.984375 -0.90625 L 0.46875 -0.90625 L 0.46875 0 L 0.25 0 L 0.25 -2.03125 Z M 0.953125 -1.109375 C 1.054688 -1.109375 1.144531 -1.140625 1.21875 -1.203125 C 1.289062 -1.265625 1.328125 -1.351562 1.328125 -1.46875 C 1.328125 -1.570312 1.289062 -1.65625 1.21875 -1.71875 C 1.144531 -1.789062 1.054688 -1.828125 0.953125 -1.828125 L 0.46875 -1.828125 L 0.46875 -1.109375 Z M 0.953125 -1.109375 "/></g></g></g><g fill="#ffffff" fill-opacity="1"><g transform="translate(39.783189, 26.982189)"><g><path d="M 0.859375 0.03125 C 0.734375 0.03125 0.613281 0 0.5 -0.0625 C 0.394531 -0.125 0.3125 -0.207031 0.25 -0.3125 C 0.1875 -0.425781 0.15625 -0.546875 0.15625 -0.671875 C 0.15625 -0.804688 0.1875 -0.925781 0.25 -1.03125 C 0.3125 -1.144531 0.394531 -1.234375 0.5 -1.296875 C 0.613281 -1.359375 0.734375 -1.390625 0.859375 -1.390625 C 0.992188 -1.390625 1.113281 -1.359375 1.21875 -1.296875 C 1.320312 -1.234375 1.40625 -1.144531 1.46875 -1.03125 C 1.53125 -0.925781 1.5625 -0.804688 1.5625 -0.671875 C 1.5625 -0.546875 1.53125 -0.425781 1.46875 -0.3125 C 1.40625 -0.207031 1.320312 -0.125 1.21875 -0.0625 C 1.113281 0 0.992188 0.03125 0.859375 0.03125 Z M 0.859375 -0.1875 C 0.953125 -0.1875 1.035156 -0.207031 1.109375 -0.25 C 1.179688 -0.289062 1.238281 -0.347656 1.28125 -0.421875 C 1.332031 -0.503906 1.359375 -0.585938 1.359375 -0.671875 C 1.359375 -0.765625 1.332031 -0.847656 1.28125 -0.921875 C 1.238281 -1.003906 1.179688 -1.066406 1.109375 -1.109375 C 1.035156 -1.148438 0.953125 -1.171875 0.859375 -1.171875 C 0.765625 -1.171875 0.679688 -1.148438 0.609375 -1.109375 C 0.535156 -1.066406 0.472656 -1.003906 0.421875 -0.921875 C 0.378906 -0.847656 0.359375 -0.765625 0.359375 -0.671875 C 0.359375 -0.585938 0.378906 -0.503906 0.421875 -0.421875 C 0.472656 -0.347656 0.535156 -0.289062 0.609375 -0.25 C 0.679688 -0.207031 0.765625 -0.1875 0.859375 -0.1875 Z M 0.859375 -0.1875 "/></g></g></g><g fill="#ffffff" fill-opacity="1"><g transform="translate(41.698802, 26.982189)"><g><path d="M 0.71875 0.03125 C 0.5625 0.03125 0.4375 -0.015625 0.34375 -0.109375 C 0.25 -0.203125 0.203125 -0.328125 0.203125 -0.484375 L 0.203125 -1.359375 L 0.40625 -1.359375 L 0.40625 -0.515625 C 0.40625 -0.410156 0.429688 -0.328125 0.484375 -0.265625 C 0.546875 -0.210938 0.625 -0.1875 0.71875 -0.1875 C 0.800781 -0.1875 0.867188 -0.210938 0.921875 -0.265625 C 0.984375 -0.328125 1.015625 -0.410156 1.015625 -0.515625 L 1.015625 -1.359375 L 1.21875 -1.359375 L 1.21875 -0.484375 C 1.21875 -0.328125 1.171875 -0.203125 1.078125 -0.109375 C 0.984375 -0.015625 0.863281 0.03125 0.71875 0.03125 Z M 0.71875 0.03125 "/></g></g></g><g fill="#ffffff" fill-opacity="1"><g transform="translate(43.319562, 26.982189)"><g><path d="M 0.90625 -1.390625 C 0.945312 -1.390625 0.984375 -1.382812 1.015625 -1.375 L 1.015625 -1.15625 C 0.984375 -1.164062 0.945312 -1.171875 0.90625 -1.171875 C 0.820312 -1.171875 0.742188 -1.148438 0.671875 -1.109375 C 0.609375 -1.078125 0.554688 -1.023438 0.515625 -0.953125 C 0.472656 -0.890625 0.453125 -0.816406 0.453125 -0.734375 L 0.453125 0 L 0.25 0 L 0.25 -1.359375 L 0.453125 -1.359375 L 0.453125 -1.171875 C 0.503906 -1.234375 0.566406 -1.285156 0.640625 -1.328125 C 0.722656 -1.367188 0.8125 -1.390625 0.90625 -1.390625 Z M 0.90625 -1.390625 "/></g></g></g><g fill="#ffffff" fill-opacity="1"><g transform="translate(44.550578, 26.982189)"><g/></g></g><g fill="#ffffff" fill-opacity="1"><g transform="translate(45.568077, 26.982189)"><g><path d="M 0.25 0 L 0.25 -2.5 L 0.453125 -2.5 L 0.453125 0 Z M 0.25 0 "/></g></g></g><g fill="#ffffff" fill-opacity="1"><g transform="translate(46.473737, 26.982189)"><g><path d="M 1.703125 -0.171875 L 1.796875 -0.171875 L 1.796875 0 C 1.765625 0.0195312 1.726562 0.03125 1.6875 0.03125 C 1.601562 0.03125 1.535156 0.0078125 1.484375 -0.03125 C 1.429688 -0.0820312 1.394531 -0.140625 1.375 -0.203125 C 1.3125 -0.140625 1.234375 -0.0820312 1.140625 -0.03125 C 1.054688 0.0078125 0.960938 0.03125 0.859375 0.03125 C 0.734375 0.03125 0.613281 0 0.5 -0.0625 C 0.394531 -0.125 0.3125 -0.207031 0.25 -0.3125 C 0.1875 -0.425781 0.15625 -0.546875 0.15625 -0.671875 C 0.15625 -0.804688 0.1875 -0.925781 0.25 -1.03125 C 0.3125 -1.144531 0.394531 -1.234375 0.5 -1.296875 C 0.613281 -1.359375 0.734375 -1.390625 0.859375 -1.390625 C 0.953125 -1.390625 1.039062 -1.367188 1.125 -1.328125 C 1.21875 -1.296875 1.296875 -1.25 1.359375 -1.1875 L 1.359375 -1.359375 L 1.5625 -1.359375 L 1.5625 -0.359375 C 1.5625 -0.296875 1.578125 -0.25 1.609375 -0.21875 C 1.640625 -0.1875 1.671875 -0.171875 1.703125 -0.171875 Z M 0.859375 -0.1875 C 0.953125 -0.1875 1.035156 -0.207031 1.109375 -0.25 C 1.179688 -0.289062 1.238281 -0.347656 1.28125 -0.421875 C 1.332031 -0.503906 1.359375 -0.585938 1.359375 -0.671875 C 1.359375 -0.765625 1.332031 -0.847656 1.28125 -0.921875 C 1.238281 -1.003906 1.179688 -1.066406 1.109375 -1.109375 C 1.035156 -1.148438 0.953125 -1.171875 0.859375 -1.171875 C 0.765625 -1.171875 0.679688 -1.148438 0.609375 -1.109375 C 0.535156 -1.066406 0.472656 -1.003906 0.421875 -0.921875 C 0.378906 -0.847656 0.359375 -0.765625 0.359375 -0.671875 C 0.359375 -0.585938 0.378906 -0.503906 0.421875 -0.421875 C 0.472656 -0.347656 0.535156 -0.289062 0.609375 -0.25 C 0.679688 -0.207031 0.765625 -0.1875 0.859375 -0.1875 Z M 0.859375 -0.1875 "/></g></g></g><g fill="#ffffff" fill-opacity="1"><g transform="translate(48.50119, 26.982189)"><g/></g></g><g fill="#ffffff" fill-opacity="1"><g transform="translate(49.51869, 26.982189)"><g><path d="M 0.578125 0.03125 C 0.472656 0.03125 0.375 0.00390625 0.28125 -0.046875 C 0.195312 -0.109375 0.140625 -0.179688 0.109375 -0.265625 L 0.3125 -0.34375 C 0.320312 -0.300781 0.351562 -0.265625 0.40625 -0.234375 C 0.457031 -0.203125 0.515625 -0.1875 0.578125 -0.1875 C 0.640625 -0.1875 0.691406 -0.203125 0.734375 -0.234375 C 0.785156 -0.265625 0.8125 -0.304688 0.8125 -0.359375 C 0.8125 -0.421875 0.785156 -0.460938 0.734375 -0.484375 C 0.691406 -0.515625 0.632812 -0.546875 0.5625 -0.578125 C 0.4375 -0.628906 0.335938 -0.6875 0.265625 -0.75 C 0.203125 -0.8125 0.171875 -0.894531 0.171875 -1 C 0.171875 -1.082031 0.1875 -1.148438 0.21875 -1.203125 C 0.257812 -1.265625 0.3125 -1.3125 0.375 -1.34375 C 0.4375 -1.375 0.5 -1.390625 0.5625 -1.390625 C 0.65625 -1.390625 0.738281 -1.363281 0.8125 -1.3125 C 0.882812 -1.269531 0.9375 -1.21875 0.96875 -1.15625 L 0.78125 -1.0625 C 0.757812 -1.101562 0.726562 -1.128906 0.6875 -1.140625 C 0.65625 -1.160156 0.617188 -1.171875 0.578125 -1.171875 C 0.523438 -1.171875 0.476562 -1.15625 0.4375 -1.125 C 0.40625 -1.101562 0.390625 -1.0625 0.390625 -1 C 0.390625 -0.945312 0.410156 -0.90625 0.453125 -0.875 C 0.492188 -0.84375 0.554688 -0.8125 0.640625 -0.78125 C 0.703125 -0.757812 0.757812 -0.726562 0.8125 -0.6875 C 0.875 -0.65625 0.921875 -0.613281 0.953125 -0.5625 C 0.992188 -0.507812 1.015625 -0.441406 1.015625 -0.359375 C 1.015625 -0.242188 0.972656 -0.148438 0.890625 -0.078125 C 0.804688 -0.00390625 0.703125 0.03125 0.578125 0.03125 Z M 0.578125 0.03125 "/></g></g></g><g fill="#ffffff" fill-opacity="1"><g transform="translate(50.84121, 26.982189)"><g><path d="M 1.328125 -2.046875 L 0.9375 -1.546875 L 0.78125 -1.546875 L 1.09375 -2.046875 Z M 1.5625 -0.6875 L 1.5625 -0.65625 L 0.359375 -0.65625 C 0.367188 -0.5625 0.394531 -0.476562 0.4375 -0.40625 C 0.476562 -0.34375 0.535156 -0.289062 0.609375 -0.25 C 0.691406 -0.207031 0.773438 -0.1875 0.859375 -0.1875 C 0.960938 -0.1875 1.054688 -0.210938 1.140625 -0.265625 C 1.222656 -0.316406 1.28125 -0.390625 1.3125 -0.484375 L 1.546875 -0.484375 C 1.515625 -0.378906 1.460938 -0.289062 1.390625 -0.21875 C 1.328125 -0.144531 1.25 -0.0820312 1.15625 -0.03125 C 1.0625 0.0078125 0.960938 0.03125 0.859375 0.03125 C 0.734375 0.03125 0.613281 0 0.5 -0.0625 C 0.394531 -0.125 0.3125 -0.207031 0.25 -0.3125 C 0.1875 -0.425781 0.15625 -0.546875 0.15625 -0.671875 C 0.15625 -0.804688 0.1875 -0.925781 0.25 -1.03125 C 0.3125 -1.144531 0.394531 -1.234375 0.5 -1.296875 C 0.613281 -1.359375 0.734375 -1.390625 0.859375 -1.390625 C 0.984375 -1.390625 1.097656 -1.359375 1.203125 -1.296875 C 1.316406 -1.234375 1.40625 -1.148438 1.46875 -1.046875 C 1.53125 -0.941406 1.5625 -0.820312 1.5625 -0.6875 Z M 0.859375 -1.171875 C 0.753906 -1.171875 0.65625 -1.140625 0.5625 -1.078125 C 0.476562 -1.015625 0.421875 -0.9375 0.390625 -0.84375 L 1.328125 -0.84375 C 1.296875 -0.9375 1.234375 -1.015625 1.140625 -1.078125 C 1.054688 -1.140625 0.960938 -1.171875 0.859375 -1.171875 Z M 0.859375 -1.171875 "/></g></g></g><g fill="#ffffff" fill-opacity="1"><g transform="translate(52.743269, 26.982189)"><g><path d="M 0.859375 0.03125 C 0.734375 0.03125 0.613281 0 0.5 -0.0625 C 0.394531 -0.125 0.3125 -0.207031 0.25 -0.3125 C 0.1875 -0.425781 0.15625 -0.546875 0.15625 -0.671875 C 0.15625 -0.804688 0.1875 -0.925781 0.25 -1.03125 C 0.3125 -1.144531 0.394531 -1.234375 0.5 -1.296875 C 0.613281 -1.359375 0.734375 -1.390625 0.859375 -1.390625 C 1.015625 -1.390625 1.15625 -1.34375 1.28125 -1.25 C 1.40625 -1.15625 1.488281 -1.035156 1.53125 -0.890625 L 1.3125 -0.890625 C 1.269531 -0.972656 1.207031 -1.039062 1.125 -1.09375 C 1.050781 -1.144531 0.960938 -1.171875 0.859375 -1.171875 C 0.765625 -1.171875 0.679688 -1.148438 0.609375 -1.109375 C 0.535156 -1.066406 0.472656 -1.003906 0.421875 -0.921875 C 0.378906 -0.847656 0.359375 -0.765625 0.359375 -0.671875 C 0.359375 -0.585938 0.378906 -0.503906 0.421875 -0.421875 C 0.472656 -0.347656 0.535156 -0.289062 0.609375 -0.25 C 0.679688 -0.207031 0.765625 -0.1875 0.859375 -0.1875 C 0.960938 -0.1875 1.050781 -0.210938 1.125 -0.265625 C 1.207031 -0.316406 1.269531 -0.382812 1.3125 -0.46875 L 1.53125 -0.46875 C 1.488281 -0.320312 1.40625 -0.203125 1.28125 -0.109375 C 1.15625 -0.015625 1.015625 0.03125 0.859375 0.03125 Z M 0.859375 0.03125 "/></g></g></g><g fill="#ffffff" fill-opacity="1"><g transform="translate(54.560601, 26.982189)"><g><path d="M 0.71875 0.03125 C 0.5625 0.03125 0.4375 -0.015625 0.34375 -0.109375 C 0.25 -0.203125 0.203125 -0.328125 0.203125 -0.484375 L 0.203125 -1.359375 L 0.40625 -1.359375 L 0.40625 -0.515625 C 0.40625 -0.410156 0.429688 -0.328125 0.484375 -0.265625 C 0.546875 -0.210938 0.625 -0.1875 0.71875 -0.1875 C 0.800781 -0.1875 0.867188 -0.210938 0.921875 -0.265625 C 0.984375 -0.328125 1.015625 -0.410156 1.015625 -0.515625 L 1.015625 -1.359375 L 1.21875 -1.359375 L 1.21875 -0.484375 C 1.21875 -0.328125 1.171875 -0.203125 1.078125 -0.109375 C 0.984375 -0.015625 0.863281 0.03125 0.71875 0.03125 Z M 0.71875 0.03125 "/></g></g></g><g fill="#ffffff" fill-opacity="1"><g transform="translate(56.181361, 26.982189)"><g><path d="M 0.90625 -1.390625 C 0.945312 -1.390625 0.984375 -1.382812 1.015625 -1.375 L 1.015625 -1.15625 C 0.984375 -1.164062 0.945312 -1.171875 0.90625 -1.171875 C 0.820312 -1.171875 0.742188 -1.148438 0.671875 -1.109375 C 0.609375 -1.078125 0.554688 -1.023438 0.515625 -0.953125 C 0.472656 -0.890625 0.453125 -0.816406 0.453125 -0.734375 L 0.453125 0 L 0.25 0 L 0.25 -1.359375 L 0.453125 -1.359375 L 0.453125 -1.171875 C 0.503906 -1.234375 0.566406 -1.285156 0.640625 -1.328125 C 0.722656 -1.367188 0.8125 -1.390625 0.90625 -1.390625 Z M 0.90625 -1.390625 "/></g></g></g><g fill="#ffffff" fill-opacity="1"><g transform="translate(57.412377, 26.982189)"><g><path d="M 0.375 -1.609375 C 0.332031 -1.609375 0.296875 -1.625 0.265625 -1.65625 C 0.242188 -1.6875 0.234375 -1.71875 0.234375 -1.75 C 0.234375 -1.800781 0.242188 -1.835938 0.265625 -1.859375 C 0.296875 -1.890625 0.332031 -1.90625 0.375 -1.90625 C 0.414062 -1.90625 0.453125 -1.890625 0.484375 -1.859375 C 0.515625 -1.835938 0.53125 -1.800781 0.53125 -1.75 C 0.53125 -1.71875 0.515625 -1.6875 0.484375 -1.65625 C 0.453125 -1.625 0.414062 -1.609375 0.375 -1.609375 Z M 0.28125 0 L 0.28125 -1.359375 L 0.484375 -1.359375 L 0.484375 0 Z M 0.28125 0 "/></g></g></g><g fill="#ffffff" fill-opacity="1"><g transform="translate(58.368875, 26.982189)"><g><path d="M 0.875 -1.15625 L 0.515625 -1.15625 L 0.515625 -0.390625 C 0.515625 -0.316406 0.53125 -0.257812 0.5625 -0.21875 C 0.601562 -0.1875 0.65625 -0.171875 0.71875 -0.171875 L 0.875 -0.171875 L 0.875 -0.015625 C 0.851562 -0.00390625 0.820312 0.00390625 0.78125 0.015625 C 0.75 0.0234375 0.71875 0.03125 0.6875 0.03125 C 0.613281 0.03125 0.546875 0.015625 0.484375 -0.015625 C 0.429688 -0.0546875 0.382812 -0.101562 0.34375 -0.15625 C 0.3125 -0.21875 0.296875 -0.285156 0.296875 -0.359375 L 0.296875 -1.15625 L 0.078125 -1.15625 L 0.078125 -1.359375 L 0.296875 -1.359375 L 0.296875 -1.953125 L 0.515625 -1.953125 L 0.515625 -1.359375 L 0.875 -1.359375 Z M 0.875 -1.15625 "/></g></g></g><g fill="#ffffff" fill-opacity="1"><g transform="translate(59.552443, 26.982189)"><g><path d="M 1.328125 -2.046875 L 0.9375 -1.546875 L 0.78125 -1.546875 L 1.09375 -2.046875 Z M 1.5625 -0.6875 L 1.5625 -0.65625 L 0.359375 -0.65625 C 0.367188 -0.5625 0.394531 -0.476562 0.4375 -0.40625 C 0.476562 -0.34375 0.535156 -0.289062 0.609375 -0.25 C 0.691406 -0.207031 0.773438 -0.1875 0.859375 -0.1875 C 0.960938 -0.1875 1.054688 -0.210938 1.140625 -0.265625 C 1.222656 -0.316406 1.28125 -0.390625 1.3125 -0.484375 L 1.546875 -0.484375 C 1.515625 -0.378906 1.460938 -0.289062 1.390625 -0.21875 C 1.328125 -0.144531 1.25 -0.0820312 1.15625 -0.03125 C 1.0625 0.0078125 0.960938 0.03125 0.859375 0.03125 C 0.734375 0.03125 0.613281 0 0.5 -0.0625 C 0.394531 -0.125 0.3125 -0.207031 0.25 -0.3125 C 0.1875 -0.425781 0.15625 -0.546875 0.15625 -0.671875 C 0.15625 -0.804688 0.1875 -0.925781 0.25 -1.03125 C 0.3125 -1.144531 0.394531 -1.234375 0.5 -1.296875 C 0.613281 -1.359375 0.734375 -1.390625 0.859375 -1.390625 C 0.984375 -1.390625 1.097656 -1.359375 1.203125 -1.296875 C 1.316406 -1.234375 1.40625 -1.148438 1.46875 -1.046875 C 1.53125 -0.941406 1.5625 -0.820312 1.5625 -0.6875 Z M 0.859375 -1.171875 C 0.753906 -1.171875 0.65625 -1.140625 0.5625 -1.078125 C 0.476562 -1.015625 0.421875 -0.9375 0.390625 -0.84375 L 1.328125 -0.84375 C 1.296875 -0.9375 1.234375 -1.015625 1.140625 -1.078125 C 1.054688 -1.140625 0.960938 -1.171875 0.859375 -1.171875 Z M 0.859375 -1.171875 "/></g></g></g><g fill="#ffffff" fill-opacity="1"><g transform="translate(61.454503, 26.982189)"><g/></g></g><g fill="#ffffff" fill-opacity="1"><g transform="translate(62.472002, 26.982189)"><g><path d="M 1.359375 -2.5 L 1.5625 -2.5 L 1.5625 0 L 1.359375 0 L 1.359375 -0.171875 C 1.296875 -0.109375 1.21875 -0.0546875 1.125 -0.015625 C 1.039062 0.015625 0.953125 0.03125 0.859375 0.03125 C 0.734375 0.03125 0.613281 0 0.5 -0.0625 C 0.394531 -0.125 0.3125 -0.207031 0.25 -0.3125 C 0.1875 -0.425781 0.15625 -0.546875 0.15625 -0.671875 C 0.15625 -0.804688 0.1875 -0.925781 0.25 -1.03125 C 0.3125 -1.144531 0.394531 -1.234375 0.5 -1.296875 C 0.613281 -1.359375 0.734375 -1.390625 0.859375 -1.390625 C 0.953125 -1.390625 1.039062 -1.367188 1.125 -1.328125 C 1.21875 -1.296875 1.296875 -1.25 1.359375 -1.1875 Z M 0.859375 -0.1875 C 0.953125 -0.1875 1.035156 -0.207031 1.109375 -0.25 C 1.179688 -0.289062 1.238281 -0.347656 1.28125 -0.421875 C 1.332031 -0.503906 1.359375 -0.585938 1.359375 -0.671875 C 1.359375 -0.765625 1.332031 -0.847656 1.28125 -0.921875 C 1.238281 -1.003906 1.179688 -1.066406 1.109375 -1.109375 C 1.035156 -1.148438 0.953125 -1.171875 0.859375 -1.171875 C 0.765625 -1.171875 0.679688 -1.148438 0.609375 -1.109375 C 0.535156 -1.066406 0.472656 -1.003906 0.421875 -0.921875 C 0.378906 -0.847656 0.359375 -0.765625 0.359375 -0.671875 C 0.359375 -0.585938 0.378906 -0.503906 0.421875 -0.421875 C 0.472656 -0.347656 0.535156 -0.289062 0.609375 -0.25 C 0.679688 -0.207031 0.765625 -0.1875 0.859375 -0.1875 Z M 0.859375 -0.1875 "/></g></g></g><g fill="#ffffff" fill-opacity="1"><g transform="translate(64.482511, 26.982189)"><g><path d="M 1.5625 -0.6875 L 1.5625 -0.65625 L 0.359375 -0.65625 C 0.367188 -0.5625 0.394531 -0.476562 0.4375 -0.40625 C 0.476562 -0.34375 0.535156 -0.289062 0.609375 -0.25 C 0.691406 -0.207031 0.773438 -0.1875 0.859375 -0.1875 C 0.960938 -0.1875 1.054688 -0.210938 1.140625 -0.265625 C 1.222656 -0.316406 1.28125 -0.390625 1.3125 -0.484375 L 1.546875 -0.484375 C 1.515625 -0.378906 1.460938 -0.289062 1.390625 -0.21875 C 1.328125 -0.144531 1.25 -0.0820312 1.15625 -0.03125 C 1.0625 0.0078125 0.960938 0.03125 0.859375 0.03125 C 0.734375 0.03125 0.613281 0 0.5 -0.0625 C 0.394531 -0.125 0.3125 -0.207031 0.25 -0.3125 C 0.1875 -0.425781 0.15625 -0.546875 0.15625 -0.671875 C 0.15625 -0.804688 0.1875 -0.925781 0.25 -1.03125 C 0.3125 -1.144531 0.394531 -1.234375 0.5 -1.296875 C 0.613281 -1.359375 0.734375 -1.390625 0.859375 -1.390625 C 0.984375 -1.390625 1.097656 -1.359375 1.203125 -1.296875 C 1.316406 -1.234375 1.40625 -1.148438 1.46875 -1.046875 C 1.53125 -0.941406 1.5625 -0.820312 1.5625 -0.6875 Z M 0.859375 -1.171875 C 0.753906 -1.171875 0.65625 -1.140625 0.5625 -1.078125 C 0.476562 -1.015625 0.421875 -0.9375 0.390625 -0.84375 L 1.328125 -0.84375 C 1.296875 -0.9375 1.234375 -1.015625 1.140625 -1.078125 C 1.054688 -1.140625 0.960938 -1.171875 0.859375 -1.171875 Z M 0.859375 -1.171875 "/></g></g></g><g fill="#ffffff" fill-opacity="1"><g transform="translate(66.38457, 26.982189)"><g/></g></g><g fill="#ffffff" fill-opacity="1"><g transform="translate(67.40207, 26.982189)"><g><path d="M 0.875 -1.15625 L 0.515625 -1.15625 L 0.515625 -0.390625 C 0.515625 -0.316406 0.53125 -0.257812 0.5625 -0.21875 C 0.601562 -0.1875 0.65625 -0.171875 0.71875 -0.171875 L 0.875 -0.171875 L 0.875 -0.015625 C 0.851562 -0.00390625 0.820312 0.00390625 0.78125 0.015625 C 0.75 0.0234375 0.71875 0.03125 0.6875 0.03125 C 0.613281 0.03125 0.546875 0.015625 0.484375 -0.015625 C 0.429688 -0.0546875 0.382812 -0.101562 0.34375 -0.15625 C 0.3125 -0.21875 0.296875 -0.285156 0.296875 -0.359375 L 0.296875 -1.15625 L 0.078125 -1.15625 L 0.078125 -1.359375 L 0.296875 -1.359375 L 0.296875 -1.953125 L 0.515625 -1.953125 L 0.515625 -1.359375 L 0.875 -1.359375 Z M 0.875 -1.15625 "/></g></g></g><g fill="#ffffff" fill-opacity="1"><g transform="translate(68.585638, 26.982189)"><g><path d="M 0.859375 0.03125 C 0.734375 0.03125 0.613281 0 0.5 -0.0625 C 0.394531 -0.125 0.3125 -0.207031 0.25 -0.3125 C 0.1875 -0.425781 0.15625 -0.546875 0.15625 -0.671875 C 0.15625 -0.804688 0.1875 -0.925781 0.25 -1.03125 C 0.3125 -1.144531 0.394531 -1.234375 0.5 -1.296875 C 0.613281 -1.359375 0.734375 -1.390625 0.859375 -1.390625 C 0.992188 -1.390625 1.113281 -1.359375 1.21875 -1.296875 C 1.320312 -1.234375 1.40625 -1.144531 1.46875 -1.03125 C 1.53125 -0.925781 1.5625 -0.804688 1.5625 -0.671875 C 1.5625 -0.546875 1.53125 -0.425781 1.46875 -0.3125 C 1.40625 -0.207031 1.320312 -0.125 1.21875 -0.0625 C 1.113281 0 0.992188 0.03125 0.859375 0.03125 Z M 0.859375 -0.1875 C 0.953125 -0.1875 1.035156 -0.207031 1.109375 -0.25 C 1.179688 -0.289062 1.238281 -0.347656 1.28125 -0.421875 C 1.332031 -0.503906 1.359375 -0.585938 1.359375 -0.671875 C 1.359375 -0.765625 1.332031 -0.847656 1.28125 -0.921875 C 1.238281 -1.003906 1.179688 -1.066406 1.109375 -1.109375 C 1.035156 -1.148438 0.953125 -1.171875 0.859375 -1.171875 C 0.765625 -1.171875 0.679688 -1.148438 0.609375 -1.109375 C 0.535156 -1.066406 0.472656 -1.003906 0.421875 -0.921875 C 0.378906 -0.847656 0.359375 -0.765625 0.359375 -0.671875 C 0.359375 -0.585938 0.378906 -0.503906 0.421875 -0.421875 C 0.472656 -0.347656 0.535156 -0.289062 0.609375 -0.25 C 0.679688 -0.207031 0.765625 -0.1875 0.859375 -0.1875 Z M 0.859375 -0.1875 "/></g></g></g><g fill="#ffffff" fill-opacity="1"><g transform="translate(70.501252, 26.982189)"><g><path d="M 0.71875 0.03125 C 0.5625 0.03125 0.4375 -0.015625 0.34375 -0.109375 C 0.25 -0.203125 0.203125 -0.328125 0.203125 -0.484375 L 0.203125 -1.359375 L 0.40625 -1.359375 L 0.40625 -0.515625 C 0.40625 -0.410156 0.429688 -0.328125 0.484375 -0.265625 C 0.546875 -0.210938 0.625 -0.1875 0.71875 -0.1875 C 0.800781 -0.1875 0.867188 -0.210938 0.921875 -0.265625 C 0.984375 -0.328125 1.015625 -0.410156 1.015625 -0.515625 L 1.015625 -1.359375 L 1.21875 -1.359375 L 1.21875 -0.484375 C 1.21875 -0.328125 1.171875 -0.203125 1.078125 -0.109375 C 0.984375 -0.015625 0.863281 0.03125 0.71875 0.03125 Z M 0.71875 0.03125 "/></g></g></g><g fill="#ffffff" fill-opacity="1"><g transform="translate(72.122012, 26.982189)"><g><path d="M 0.578125 0.03125 C 0.472656 0.03125 0.375 0.00390625 0.28125 -0.046875 C 0.195312 -0.109375 0.140625 -0.179688 0.109375 -0.265625 L 0.3125 -0.34375 C 0.320312 -0.300781 0.351562 -0.265625 0.40625 -0.234375 C 0.457031 -0.203125 0.515625 -0.1875 0.578125 -0.1875 C 0.640625 -0.1875 0.691406 -0.203125 0.734375 -0.234375 C 0.785156 -0.265625 0.8125 -0.304688 0.8125 -0.359375 C 0.8125 -0.421875 0.785156 -0.460938 0.734375 -0.484375 C 0.691406 -0.515625 0.632812 -0.546875 0.5625 -0.578125 C 0.4375 -0.628906 0.335938 -0.6875 0.265625 -0.75 C 0.203125 -0.8125 0.171875 -0.894531 0.171875 -1 C 0.171875 -1.082031 0.1875 -1.148438 0.21875 -1.203125 C 0.257812 -1.265625 0.3125 -1.3125 0.375 -1.34375 C 0.4375 -1.375 0.5 -1.390625 0.5625 -1.390625 C 0.65625 -1.390625 0.738281 -1.363281 0.8125 -1.3125 C 0.882812 -1.269531 0.9375 -1.21875 0.96875 -1.15625 L 0.78125 -1.0625 C 0.757812 -1.101562 0.726562 -1.128906 0.6875 -1.140625 C 0.65625 -1.160156 0.617188 -1.171875 0.578125 -1.171875 C 0.523438 -1.171875 0.476562 -1.15625 0.4375 -1.125 C 0.40625 -1.101562 0.390625 -1.0625 0.390625 -1 C 0.390625 -0.945312 0.410156 -0.90625 0.453125 -0.875 C 0.492188 -0.84375 0.554688 -0.8125 0.640625 -0.78125 C 0.703125 -0.757812 0.757812 -0.726562 0.8125 -0.6875 C 0.875 -0.65625 0.921875 -0.613281 0.953125 -0.5625 C 0.992188 -0.507812 1.015625 -0.441406 1.015625 -0.359375 C 1.015625 -0.242188 0.972656 -0.148438 0.890625 -0.078125 C 0.804688 -0.00390625 0.703125 0.03125 0.578125 0.03125 Z M 0.578125 0.03125 "/></g></g></g><g fill="#ffffff" fill-opacity="1"><g transform="translate(73.44453, 26.982189)"><g/></g></g><g fill="#ffffff" fill-opacity="1"><g transform="translate(74.462028, 26.982189)"><g><path d="M 1.09375 -1.359375 L 1.328125 -1.359375 L 0.78125 0 L 0.578125 0 L 0.03125 -1.359375 L 0.265625 -1.359375 L 0.671875 -0.25 Z M 1.09375 -1.359375 "/></g></g></g><g fill="#ffffff" fill-opacity="1"><g transform="translate(76.015007, 26.982189)"><g><path d="M 0.859375 0.03125 C 0.734375 0.03125 0.613281 0 0.5 -0.0625 C 0.394531 -0.125 0.3125 -0.207031 0.25 -0.3125 C 0.1875 -0.425781 0.15625 -0.546875 0.15625 -0.671875 C 0.15625 -0.804688 0.1875 -0.925781 0.25 -1.03125 C 0.3125 -1.144531 0.394531 -1.234375 0.5 -1.296875 C 0.613281 -1.359375 0.734375 -1.390625 0.859375 -1.390625 C 0.992188 -1.390625 1.113281 -1.359375 1.21875 -1.296875 C 1.320312 -1.234375 1.40625 -1.144531 1.46875 -1.03125 C 1.53125 -0.925781 1.5625 -0.804688 1.5625 -0.671875 C 1.5625 -0.546875 1.53125 -0.425781 1.46875 -0.3125 C 1.40625 -0.207031 1.320312 -0.125 1.21875 -0.0625 C 1.113281 0 0.992188 0.03125 0.859375 0.03125 Z M 0.859375 -0.1875 C 0.953125 -0.1875 1.035156 -0.207031 1.109375 -0.25 C 1.179688 -0.289062 1.238281 -0.347656 1.28125 -0.421875 C 1.332031 -0.503906 1.359375 -0.585938 1.359375 -0.671875 C 1.359375 -0.765625 1.332031 -0.847656 1.28125 -0.921875 C 1.238281 -1.003906 1.179688 -1.066406 1.109375 -1.109375 C 1.035156 -1.148438 0.953125 -1.171875 0.859375 -1.171875 C 0.765625 -1.171875 0.679688 -1.148438 0.609375 -1.109375 C 0.535156 -1.066406 0.472656 -1.003906 0.421875 -0.921875 C 0.378906 -0.847656 0.359375 -0.765625 0.359375 -0.671875 C 0.359375 -0.585938 0.378906 -0.503906 0.421875 -0.421875 C 0.472656 -0.347656 0.535156 -0.289062 0.609375 -0.25 C 0.679688 -0.207031 0.765625 -0.1875 0.859375 -0.1875 Z M 0.859375 -0.1875 "/></g></g></g><g fill="#ffffff" fill-opacity="1"><g transform="translate(77.930619, 26.982189)"><g><path d="M 0.578125 0.03125 C 0.472656 0.03125 0.375 0.00390625 0.28125 -0.046875 C 0.195312 -0.109375 0.140625 -0.179688 0.109375 -0.265625 L 0.3125 -0.34375 C 0.320312 -0.300781 0.351562 -0.265625 0.40625 -0.234375 C 0.457031 -0.203125 0.515625 -0.1875 0.578125 -0.1875 C 0.640625 -0.1875 0.691406 -0.203125 0.734375 -0.234375 C 0.785156 -0.265625 0.8125 -0.304688 0.8125 -0.359375 C 0.8125 -0.421875 0.785156 -0.460938 0.734375 -0.484375 C 0.691406 -0.515625 0.632812 -0.546875 0.5625 -0.578125 C 0.4375 -0.628906 0.335938 -0.6875 0.265625 -0.75 C 0.203125 -0.8125 0.171875 -0.894531 0.171875 -1 C 0.171875 -1.082031 0.1875 -1.148438 0.21875 -1.203125 C 0.257812 -1.265625 0.3125 -1.3125 0.375 -1.34375 C 0.4375 -1.375 0.5 -1.390625 0.5625 -1.390625 C 0.65625 -1.390625 0.738281 -1.363281 0.8125 -1.3125 C 0.882812 -1.269531 0.9375 -1.21875 0.96875 -1.15625 L 0.78125 -1.0625 C 0.757812 -1.101562 0.726562 -1.128906 0.6875 -1.140625 C 0.65625 -1.160156 0.617188 -1.171875 0.578125 -1.171875 C 0.523438 -1.171875 0.476562 -1.15625 0.4375 -1.125 C 0.40625 -1.101562 0.390625 -1.0625 0.390625 -1 C 0.390625 -0.945312 0.410156 -0.90625 0.453125 -0.875 C 0.492188 -0.84375 0.554688 -0.8125 0.640625 -0.78125 C 0.703125 -0.757812 0.757812 -0.726562 0.8125 -0.6875 C 0.875 -0.65625 0.921875 -0.613281 0.953125 -0.5625 C 0.992188 -0.507812 1.015625 -0.441406 1.015625 -0.359375 C 1.015625 -0.242188 0.972656 -0.148438 0.890625 -0.078125 C 0.804688 -0.00390625 0.703125 0.03125 0.578125 0.03125 Z M 0.578125 0.03125 "/></g></g></g><g fill="#ffffff" fill-opacity="1"><g transform="translate(79.253137, 26.982189)"><g/></g></g><g fill="#ffffff" fill-opacity="1"><g transform="translate(80.270635, 26.982189)"><g><path d="M 0.859375 0.03125 C 0.734375 0.03125 0.613281 0 0.5 -0.0625 C 0.394531 -0.125 0.3125 -0.207031 0.25 -0.3125 C 0.1875 -0.425781 0.15625 -0.546875 0.15625 -0.671875 C 0.15625 -0.804688 0.1875 -0.925781 0.25 -1.03125 C 0.3125 -1.144531 0.394531 -1.234375 0.5 -1.296875 C 0.613281 -1.359375 0.734375 -1.390625 0.859375 -1.390625 C 1.015625 -1.390625 1.15625 -1.34375 1.28125 -1.25 C 1.40625 -1.15625 1.488281 -1.035156 1.53125 -0.890625 L 1.3125 -0.890625 C 1.269531 -0.972656 1.207031 -1.039062 1.125 -1.09375 C 1.050781 -1.144531 0.960938 -1.171875 0.859375 -1.171875 C 0.765625 -1.171875 0.679688 -1.148438 0.609375 -1.109375 C 0.535156 -1.066406 0.472656 -1.003906 0.421875 -0.921875 C 0.378906 -0.847656 0.359375 -0.765625 0.359375 -0.671875 C 0.359375 -0.585938 0.378906 -0.503906 0.421875 -0.421875 C 0.472656 -0.347656 0.535156 -0.289062 0.609375 -0.25 C 0.679688 -0.207031 0.765625 -0.1875 0.859375 -0.1875 C 0.960938 -0.1875 1.050781 -0.210938 1.125 -0.265625 C 1.207031 -0.316406 1.269531 -0.382812 1.3125 -0.46875 L 1.53125 -0.46875 C 1.488281 -0.320312 1.40625 -0.203125 1.28125 -0.109375 C 1.15625 -0.015625 1.015625 0.03125 0.859375 0.03125 Z M 0.859375 0.03125 "/></g></g></g><g fill="#ffffff" fill-opacity="1"><g transform="translate(82.087965, 26.982189)"><g><path d="M 0.859375 0.03125 C 0.734375 0.03125 0.613281 0 0.5 -0.0625 C 0.394531 -0.125 0.3125 -0.207031 0.25 -0.3125 C 0.1875 -0.425781 0.15625 -0.546875 0.15625 -0.671875 C 0.15625 -0.804688 0.1875 -0.925781 0.25 -1.03125 C 0.3125 -1.144531 0.394531 -1.234375 0.5 -1.296875 C 0.613281 -1.359375 0.734375 -1.390625 0.859375 -1.390625 C 0.992188 -1.390625 1.113281 -1.359375 1.21875 -1.296875 C 1.320312 -1.234375 1.40625 -1.144531 1.46875 -1.03125 C 1.53125 -0.925781 1.5625 -0.804688 1.5625 -0.671875 C 1.5625 -0.546875 1.53125 -0.425781 1.46875 -0.3125 C 1.40625 -0.207031 1.320312 -0.125 1.21875 -0.0625 C 1.113281 0 0.992188 0.03125 0.859375 0.03125 Z M 0.859375 -0.1875 C 0.953125 -0.1875 1.035156 -0.207031 1.109375 -0.25 C 1.179688 -0.289062 1.238281 -0.347656 1.28125 -0.421875 C 1.332031 -0.503906 1.359375 -0.585938 1.359375 -0.671875 C 1.359375 -0.765625 1.332031 -0.847656 1.28125 -0.921875 C 1.238281 -1.003906 1.179688 -1.066406 1.109375 -1.109375 C 1.035156 -1.148438 0.953125 -1.171875 0.859375 -1.171875 C 0.765625 -1.171875 0.679688 -1.148438 0.609375 -1.109375 C 0.535156 -1.066406 0.472656 -1.003906 0.421875 -0.921875 C 0.378906 -0.847656 0.359375 -0.765625 0.359375 -0.671875 C 0.359375 -0.585938 0.378906 -0.503906 0.421875 -0.421875 C 0.472656 -0.347656 0.535156 -0.289062 0.609375 -0.25 C 0.679688 -0.207031 0.765625 -0.1875 0.859375 -0.1875 Z M 0.859375 -0.1875 "/></g></g></g><g fill="#ffffff" fill-opacity="1"><g transform="translate(84.003576, 26.982189)"><g><path d="M 1.546875 -1.390625 C 1.640625 -1.390625 1.722656 -1.363281 1.796875 -1.3125 C 1.878906 -1.269531 1.941406 -1.207031 1.984375 -1.125 C 2.035156 -1.050781 2.0625 -0.96875 2.0625 -0.875 L 2.0625 0 L 1.84375 0 L 1.84375 -0.875 C 1.84375 -0.957031 1.8125 -1.023438 1.75 -1.078125 C 1.695312 -1.140625 1.628906 -1.171875 1.546875 -1.171875 C 1.472656 -1.171875 1.40625 -1.140625 1.34375 -1.078125 C 1.28125 -1.023438 1.25 -0.957031 1.25 -0.875 L 1.25 0 L 1.046875 0 L 1.046875 -0.875 C 1.046875 -0.957031 1.015625 -1.023438 0.953125 -1.078125 C 0.898438 -1.140625 0.832031 -1.171875 0.75 -1.171875 C 0.664062 -1.171875 0.59375 -1.140625 0.53125 -1.078125 C 0.476562 -1.023438 0.453125 -0.957031 0.453125 -0.875 L 0.453125 0 L 0.25 0 L 0.25 -1.359375 L 0.453125 -1.359375 L 0.453125 -1.234375 C 0.492188 -1.273438 0.539062 -1.3125 0.59375 -1.34375 C 0.65625 -1.375 0.71875 -1.390625 0.78125 -1.390625 C 0.851562 -1.390625 0.921875 -1.367188 0.984375 -1.328125 C 1.046875 -1.296875 1.101562 -1.25 1.15625 -1.1875 C 1.195312 -1.25 1.25 -1.296875 1.3125 -1.328125 C 1.382812 -1.367188 1.460938 -1.390625 1.546875 -1.390625 Z M 1.546875 -1.390625 "/></g></g></g><g fill="#ffffff" fill-opacity="1"><g transform="translate(86.481782, 26.982189)"><g><path d="M 0.953125 -1.390625 C 1.085938 -1.390625 1.207031 -1.359375 1.3125 -1.296875 C 1.414062 -1.234375 1.5 -1.144531 1.5625 -1.03125 C 1.625 -0.925781 1.65625 -0.804688 1.65625 -0.671875 C 1.65625 -0.546875 1.625 -0.425781 1.5625 -0.3125 C 1.5 -0.207031 1.414062 -0.125 1.3125 -0.0625 C 1.207031 0 1.085938 0.03125 0.953125 0.03125 C 0.859375 0.03125 0.769531 0.015625 0.6875 -0.015625 C 0.601562 -0.0546875 0.523438 -0.109375 0.453125 -0.171875 L 0.453125 0.8125 L 0.25 0.8125 L 0.25 -1.359375 L 0.453125 -1.359375 L 0.453125 -1.1875 C 0.523438 -1.25 0.601562 -1.296875 0.6875 -1.328125 C 0.769531 -1.367188 0.859375 -1.390625 0.953125 -1.390625 Z M 0.953125 -0.1875 C 1.046875 -0.1875 1.128906 -0.207031 1.203125 -0.25 C 1.273438 -0.289062 1.332031 -0.347656 1.375 -0.421875 C 1.425781 -0.503906 1.453125 -0.585938 1.453125 -0.671875 C 1.453125 -0.765625 1.425781 -0.847656 1.375 -0.921875 C 1.332031 -1.003906 1.273438 -1.066406 1.203125 -1.109375 C 1.128906 -1.148438 1.046875 -1.171875 0.953125 -1.171875 C 0.859375 -1.171875 0.773438 -1.148438 0.703125 -1.109375 C 0.628906 -1.066406 0.566406 -1.003906 0.515625 -0.921875 C 0.472656 -0.847656 0.453125 -0.765625 0.453125 -0.671875 C 0.453125 -0.585938 0.472656 -0.503906 0.515625 -0.421875 C 0.566406 -0.347656 0.628906 -0.289062 0.703125 -0.25 C 0.773438 -0.207031 0.859375 -0.1875 0.953125 -0.1875 Z M 0.953125 -0.1875 "/></g></g></g><g fill="#ffffff" fill-opacity="1"><g transform="translate(88.492288, 26.982189)"><g><path d="M 0.875 -1.15625 L 0.515625 -1.15625 L 0.515625 -0.390625 C 0.515625 -0.316406 0.53125 -0.257812 0.5625 -0.21875 C 0.601562 -0.1875 0.65625 -0.171875 0.71875 -0.171875 L 0.875 -0.171875 L 0.875 -0.015625 C 0.851562 -0.00390625 0.820312 0.00390625 0.78125 0.015625 C 0.75 0.0234375 0.71875 0.03125 0.6875 0.03125 C 0.613281 0.03125 0.546875 0.015625 0.484375 -0.015625 C 0.429688 -0.0546875 0.382812 -0.101562 0.34375 -0.15625 C 0.3125 -0.21875 0.296875 -0.285156 0.296875 -0.359375 L 0.296875 -1.15625 L 0.078125 -1.15625 L 0.078125 -1.359375 L 0.296875 -1.359375 L 0.296875 -1.953125 L 0.515625 -1.953125 L 0.515625 -1.359375 L 0.875 -1.359375 Z M 0.875 -1.15625 "/></g></g></g><g fill="#ffffff" fill-opacity="1"><g transform="translate(89.675855, 26.982189)"><g><path d="M 1.5625 -0.6875 L 1.5625 -0.65625 L 0.359375 -0.65625 C 0.367188 -0.5625 0.394531 -0.476562 0.4375 -0.40625 C 0.476562 -0.34375 0.535156 -0.289062 0.609375 -0.25 C 0.691406 -0.207031 0.773438 -0.1875 0.859375 -0.1875 C 0.960938 -0.1875 1.054688 -0.210938 1.140625 -0.265625 C 1.222656 -0.316406 1.28125 -0.390625 1.3125 -0.484375 L 1.546875 -0.484375 C 1.515625 -0.378906 1.460938 -0.289062 1.390625 -0.21875 C 1.328125 -0.144531 1.25 -0.0820312 1.15625 -0.03125 C 1.0625 0.0078125 0.960938 0.03125 0.859375 0.03125 C 0.734375 0.03125 0.613281 0 0.5 -0.0625 C 0.394531 -0.125 0.3125 -0.207031 0.25 -0.3125 C 0.1875 -0.425781 0.15625 -0.546875 0.15625 -0.671875 C 0.15625 -0.804688 0.1875 -0.925781 0.25 -1.03125 C 0.3125 -1.144531 0.394531 -1.234375 0.5 -1.296875 C 0.613281 -1.359375 0.734375 -1.390625 0.859375 -1.390625 C 0.984375 -1.390625 1.097656 -1.359375 1.203125 -1.296875 C 1.316406 -1.234375 1.40625 -1.148438 1.46875 -1.046875 C 1.53125 -0.941406 1.5625 -0.820312 1.5625 -0.6875 Z M 0.859375 -1.171875 C 0.753906 -1.171875 0.65625 -1.140625 0.5625 -1.078125 C 0.476562 -1.015625 0.421875 -0.9375 0.390625 -0.84375 L 1.328125 -0.84375 C 1.296875 -0.9375 1.234375 -1.015625 1.140625 -1.078125 C 1.054688 -1.140625 0.960938 -1.171875 0.859375 -1.171875 Z M 0.859375 -1.171875 "/></g></g></g><g fill="#ffffff" fill-opacity="1"><g transform="translate(91.577912, 26.982189)"><g><path d="M 0.578125 0.03125 C 0.472656 0.03125 0.375 0.00390625 0.28125 -0.046875 C 0.195312 -0.109375 0.140625 -0.179688 0.109375 -0.265625 L 0.3125 -0.34375 C 0.320312 -0.300781 0.351562 -0.265625 0.40625 -0.234375 C 0.457031 -0.203125 0.515625 -0.1875 0.578125 -0.1875 C 0.640625 -0.1875 0.691406 -0.203125 0.734375 -0.234375 C 0.785156 -0.265625 0.8125 -0.304688 0.8125 -0.359375 C 0.8125 -0.421875 0.785156 -0.460938 0.734375 -0.484375 C 0.691406 -0.515625 0.632812 -0.546875 0.5625 -0.578125 C 0.4375 -0.628906 0.335938 -0.6875 0.265625 -0.75 C 0.203125 -0.8125 0.171875 -0.894531 0.171875 -1 C 0.171875 -1.082031 0.1875 -1.148438 0.21875 -1.203125 C 0.257812 -1.265625 0.3125 -1.3125 0.375 -1.34375 C 0.4375 -1.375 0.5 -1.390625 0.5625 -1.390625 C 0.65625 -1.390625 0.738281 -1.363281 0.8125 -1.3125 C 0.882812 -1.269531 0.9375 -1.21875 0.96875 -1.15625 L 0.78125 -1.0625 C 0.757812 -1.101562 0.726562 -1.128906 0.6875 -1.140625 C 0.65625 -1.160156 0.617188 -1.171875 0.578125 -1.171875 C 0.523438 -1.171875 0.476562 -1.15625 0.4375 -1.125 C 0.40625 -1.101562 0.390625 -1.0625 0.390625 -1 C 0.390625 -0.945312 0.410156 -0.90625 0.453125 -0.875 C 0.492188 -0.84375 0.554688 -0.8125 0.640625 -0.78125 C 0.703125 -0.757812 0.757812 -0.726562 0.8125 -0.6875 C 0.875 -0.65625 0.921875 -0.613281 0.953125 -0.5625 C 0.992188 -0.507812 1.015625 -0.441406 1.015625 -0.359375 C 1.015625 -0.242188 0.972656 -0.148438 0.890625 -0.078125 C 0.804688 -0.00390625 0.703125 0.03125 0.578125 0.03125 Z M 0.578125 0.03125 "/></g></g></g><g clip-path="url(#a67e83184a)"><path fill="#ffffff" d="M 34.046875 10.636719 C 33.292969 9.332031 31.621094 8.882812 30.3125 9.636719 C 29.339844 10.199219 23.894531 14.128906 21.507812 16.632812 C 22.480469 13.3125 23.160156 6.632812 23.160156 5.507812 C 23.160156 4 21.9375 2.777344 20.429688 2.777344 C 18.921875 2.777344 17.699219 4 17.699219 5.507812 C 17.699219 6.632812 18.378906 13.3125 19.351562 16.632812 C 16.964844 14.128906 11.519531 10.199219 10.546875 9.636719 C 9.238281 8.882812 7.566406 9.332031 6.8125 10.636719 C 6.058594 11.945312 6.507812 13.613281 7.8125 14.367188 C 8.789062 14.933594 14.914062 17.683594 18.273438 18.5 C 14.914062 19.3125 8.789062 22.0625 7.8125 22.628906 C 6.507812 23.382812 6.058594 25.050781 6.8125 26.359375 C 7.566406 27.667969 9.238281 28.113281 10.546875 27.359375 C 11.519531 26.796875 16.964844 22.867188 19.351562 20.367188 C 18.378906 23.683594 17.699219 30.363281 17.699219 31.488281 C 17.699219 32.996094 18.921875 34.21875 20.429688 34.21875 C 21.9375 34.21875 23.160156 32.996094 23.160156 31.488281 C 23.160156 30.363281 22.480469 23.683594 21.507812 20.367188 C 23.894531 22.867188 29.339844 26.796875 30.3125 27.359375 C 31.621094 28.113281 33.292969 27.667969 34.046875 26.359375 C 34.800781 25.050781 34.351562 23.382812 33.046875 22.628906 C 32.070312 22.0625 25.945312 19.3125 22.585938 18.5 C 25.945312 17.683594 32.070312 14.933594 33.046875 14.367188 C 34.351562 13.613281 34.800781 11.945312 34.046875 10.636719 " fill-opacity="1" fill-rule="nonzero"/></g></svg>